<?xml version="1.0" standalone="no"?>
<!DOCTYPE svg PUBLIC "-//W3C//DTD SVG 20010904//EN"
 "http://www.w3.org/TR/2001/REC-SVG-20010904/DTD/svg10.dtd">
<svg version="1.0" xmlns="http://www.w3.org/2000/svg"
 width="1988.000000pt" height="1988.000000pt" viewBox="0 0 1988.000000 1988.000000"
 preserveAspectRatio="xMidYMid meet">
<metadata>
Created by potrace 1.11, written by Peter Selinger 2001-2013
</metadata>
<g transform="translate(0.000000,1988.000000) scale(0.100000,-0.100000)"
fill="#000000" stroke="none">
<path d="M9150 19405 c-80 -8 -201 -18 -270 -25 -223 -20 -690 -112 -893 -175
-43 -14 -133 -39 -200 -55 -154 -39 -637 -182 -708 -210 -30 -12 -128 -49
-218 -82 -179 -65 -638 -280 -860 -403 -200 -110 -257 -173 -281 -306 -19
-106 -30 -7088 -11 -7344 14 -201 49 -485 72 -590 23 -108 142 -516 205 -704
76 -228 187 -439 396 -751 217 -326 246 -363 503 -633 160 -168 234 -236 393
-364 241 -193 362 -276 574 -394 332 -186 460 -242 768 -338 219 -69 337 -97
620 -146 262 -45 387 -55 690 -55 316 0 421 10 725 65 462 84 689 156 1067
339 300 145 333 163 544 303 349 230 795 659 1064 1023 82 112 238 348 282
430 51 94 220 458 266 575 91 228 148 431 197 698 56 306 59 354 59 782 0 364
-2 413 -23 545 -45 292 -119 624 -174 785 -93 267 -328 759 -450 940 -119 176
-372 500 -462 590 -160 162 -414 395 -530 487 -105 83 -477 327 -596 391 -307
164 -641 282 -1045 367 -82 17 -193 43 -247 56 -172 43 -277 54 -567 58 -448
7 -621 -10 -987 -95 -369 -86 -570 -147 -861 -265 -101 -41 -196 -74 -211 -74
-39 0 -60 28 -71 93 -14 89 -16 1812 -1 1870 15 64 36 94 81 117 86 44 579
179 874 240 103 21 331 50 646 81 267 27 647 29 845 5 72 -8 195 -22 275 -31
399 -44 1077 -215 1599 -404 158 -57 230 -93 586 -288 375 -205 622 -357 827
-511 185 -139 242 -187 472 -400 214 -200 347 -338 471 -492 51 -63 139 -167
195 -230 56 -63 122 -142 145 -175 66 -92 454 -727 518 -845 82 -153 184 -395
277 -656 45 -126 93 -258 106 -293 26 -69 102 -341 128 -456 48 -218 108 -602
127 -810 36 -394 36 -649 -2 -1225 -17 -265 -63 -533 -150 -885 -57 -231 -79
-298 -201 -620 -172 -456 -282 -696 -412 -899 -46 -72 -125 -204 -176 -292
-99 -173 -168 -269 -412 -574 -126 -158 -212 -250 -449 -486 -240 -237 -334
-322 -514 -465 -272 -216 -263 -209 -415 -304 -69 -43 -201 -127 -294 -188
-201 -131 -542 -297 -846 -412 -107 -40 -261 -99 -342 -129 -94 -36 -248 -82
-421 -125 -295 -74 -323 -80 -762 -143 l-290 -42 -370 -4 c-295 -3 -396 0
-500 13 -71 8 -179 20 -240 25 -340 28 -568 65 -865 141 -303 78 -311 80 -665
219 -447 175 -650 270 -923 432 -192 114 -490 308 -598 389 -208 157 -470 391
-749 672 -270 271 -304 309 -475 535 -224 294 -265 355 -427 637 -171 296
-307 568 -380 755 -140 359 -291 862 -333 1110 -12 69 -39 208 -60 310 -21
102 -43 239 -50 305 -6 66 -17 176 -25 245 -15 142 -22 1351 -16 2915 4 1052
-6 2431 -19 2592 -14 168 -55 233 -149 233 -125 0 -263 -160 -635 -740 -37
-58 -107 -163 -157 -235 -71 -103 -132 -216 -299 -550 -230 -463 -274 -562
-424 -965 -123 -330 -144 -396 -206 -655 -26 -110 -71 -288 -98 -395 -74 -287
-152 -796 -152 -997 0 -34 -9 -108 -21 -165 l-20 -103 2 -4705 c1 -2588 3
-5065 3 -5505 1 -875 -1 -843 59 -934 80 -121 294 -115 680 19 186 64 394 178
600 328 232 169 511 498 618 729 80 172 141 390 179 638 19 121 23 207 30 645
5 278 9 945 8 1482 0 797 3 982 14 1005 31 65 106 27 247 -126 100 -107 437
-428 573 -544 328 -279 1004 -744 1288 -886 86 -43 203 -105 260 -138 140 -81
262 -141 406 -201 179 -75 687 -268 869 -329 189 -64 743 -204 900 -228 61 -9
166 -27 235 -40 163 -31 398 -62 530 -70 58 -3 186 -16 285 -27 155 -18 238
-21 605 -21 373 -1 447 2 605 21 99 12 236 26 305 31 314 26 837 115 1185 202
277 70 741 230 1085 374 69 29 170 70 225 90 148 55 554 267 850 443 306 183
379 231 500 327 50 39 138 103 196 142 114 77 442 329 548 422 121 105 744
736 846 856 125 148 308 380 394 500 36 50 115 160 177 245 147 203 237 353
454 750 203 370 253 478 422 910 161 409 195 506 272 778 163 573 228 911 256
1332 6 91 18 233 27 315 12 108 17 291 20 653 4 466 3 515 -16 665 -11 89 -26
209 -32 267 -15 153 -85 630 -108 740 -108 515 -181 760 -361 1225 -42 110
-83 218 -90 240 -48 151 -182 447 -299 659 -48 89 -118 219 -155 290 -98 188
-304 509 -526 819 -107 150 -206 286 -218 303 -226 284 -949 1021 -1172 1194
-69 53 -181 145 -250 205 -71 61 -207 161 -315 233 -104 68 -283 187 -396 262
-113 75 -271 170 -350 210 -79 40 -178 92 -219 115 -472 266 -820 403 -1585
623 -261 76 -604 165 -710 186 -213 42 -458 77 -630 91 -104 9 -228 20 -275
25 -128 15 -1264 10 -1440 -5z m990 -6360 c182 -22 306 -49 459 -100 295 -99
481 -213 742 -455 162 -150 260 -294 430 -635 77 -156 105 -248 139 -471 54
-349 28 -674 -80 -1004 -45 -138 -87 -224 -188 -385 -200 -320 -289 -414 -572
-602 -294 -195 -498 -281 -805 -337 -308 -56 -383 -57 -656 -7 -259 48 -386
91 -572 192 -324 176 -443 266 -607 458 -214 250 -280 357 -372 598 -107 281
-143 474 -142 758 1 174 2 187 46 395 26 121 62 259 83 315 48 130 152 341
214 435 100 152 368 419 527 526 86 57 274 150 410 202 133 51 387 109 544
125 92 10 288 5 400 -8z"/>
</g>
</svg>
